<?xml version="1.0" encoding="utf-8" standalone="no"?>
<!DOCTYPE svg PUBLIC "-//W3C//DTD SVG 1.1//EN"
  "http://www.w3.org/Graphics/SVG/1.1/DTD/svg11.dtd">
<!-- Created with matplotlib (https://matplotlib.org/) -->
<svg height="345.6pt" version="1.1" viewBox="0 0 460.8 345.6" width="460.8pt" xmlns="http://www.w3.org/2000/svg" xmlns:xlink="http://www.w3.org/1999/xlink">
 <defs>
  <style type="text/css">
*{stroke-linecap:butt;stroke-linejoin:round;}
  </style>
 </defs>
 <g id="figure_1">
  <g id="patch_1">
   <path d="M 0 345.6 
L 460.8 345.6 
L 460.8 0 
L 0 0 
z
" style="fill:#ffffff;"/>
  </g>
  <g id="axes_1">
   <g id="patch_2">
    <path d="M 54.885 277.475665 
L 443.71732 277.475665 
L 443.71732 45.996875 
L 54.885 45.996875 
z
" style="fill:#ffffff;"/>
   </g>
   <g id="matplotlib.axis_1">
    <g id="xtick_1">
     <g id="line2d_1">
      <path clip-path="url(#pe4a01f8376)" d="M 58.977972 277.475665 
L 58.977972 45.996875 
" style="fill:none;stroke:#b0b0b0;stroke-linecap:square;stroke-width:0.8;"/>
     </g>
     <g id="line2d_2">
      <defs>
       <path d="M 0 0 
L 0 3.5 
" id="mdb3c8f3e76" style="stroke:#000000;stroke-width:0.8;"/>
      </defs>
      <g>
       <use style="stroke:#000000;stroke-width:0.8;" x="58.977972" xlink:href="#mdb3c8f3e76" y="277.475665"/>
      </g>
     </g>
     <g id="text_1">
      <!-- 1825 -->
      <defs>
       <path d="M 12.40625 8.296875 
L 28.515625 8.296875 
L 28.515625 63.921875 
L 10.984375 60.40625 
L 10.984375 69.390625 
L 28.421875 72.90625 
L 38.28125 72.90625 
L 38.28125 8.296875 
L 54.390625 8.296875 
L 54.390625 0 
L 12.40625 0 
z
" id="DejaVuSans-49"/>
       <path d="M 31.78125 34.625 
Q 24.75 34.625 20.71875 30.859375 
Q 16.703125 27.09375 16.703125 20.515625 
Q 16.703125 13.921875 20.71875 10.15625 
Q 24.75 6.390625 31.78125 6.390625 
Q 38.8125 6.390625 42.859375 10.171875 
Q 46.921875 13.96875 46.921875 20.515625 
Q 46.921875 27.09375 42.890625 30.859375 
Q 38.875 34.625 31.78125 34.625 
z
M 21.921875 38.8125 
Q 15.578125 40.375 12.03125 44.71875 
Q 8.5 49.078125 8.5 55.328125 
Q 8.5 64.0625 14.71875 69.140625 
Q 20.953125 74.21875 31.78125 74.21875 
Q 42.671875 74.21875 48.875 69.140625 
Q 55.078125 64.0625 55.078125 55.328125 
Q 55.078125 49.078125 51.53125 44.71875 
Q 48 40.375 41.703125 38.8125 
Q 48.828125 37.15625 52.796875 32.3125 
Q 56.78125 27.484375 56.78125 20.515625 
Q 56.78125 9.90625 50.3125 4.234375 
Q 43.84375 -1.421875 31.78125 -1.421875 
Q 19.734375 -1.421875 13.25 4.234375 
Q 6.78125 9.90625 6.78125 20.515625 
Q 6.78125 27.484375 10.78125 32.3125 
Q 14.796875 37.15625 21.921875 38.8125 
z
M 18.3125 54.390625 
Q 18.3125 48.734375 21.84375 45.5625 
Q 25.390625 42.390625 31.78125 42.390625 
Q 38.140625 42.390625 41.71875 45.5625 
Q 45.3125 48.734375 45.3125 54.390625 
Q 45.3125 60.0625 41.71875 63.234375 
Q 38.140625 66.40625 31.78125 66.40625 
Q 25.390625 66.40625 21.84375 63.234375 
Q 18.3125 60.0625 18.3125 54.390625 
z
" id="DejaVuSans-56"/>
       <path d="M 19.1875 8.296875 
L 53.609375 8.296875 
L 53.609375 0 
L 7.328125 0 
L 7.328125 8.296875 
Q 12.9375 14.109375 22.625 23.890625 
Q 32.328125 33.6875 34.8125 36.53125 
Q 39.546875 41.84375 41.421875 45.53125 
Q 43.3125 49.21875 43.3125 52.78125 
Q 43.3125 58.59375 39.234375 62.25 
Q 35.15625 65.921875 28.609375 65.921875 
Q 23.96875 65.921875 18.8125 64.3125 
Q 13.671875 62.703125 7.8125 59.421875 
L 7.8125 69.390625 
Q 13.765625 71.78125 18.9375 73 
Q 24.125 74.21875 28.421875 74.21875 
Q 39.75 74.21875 46.484375 68.546875 
Q 53.21875 62.890625 53.21875 53.421875 
Q 53.21875 48.921875 51.53125 44.890625 
Q 49.859375 40.875 45.40625 35.40625 
Q 44.1875 33.984375 37.640625 27.21875 
Q 31.109375 20.453125 19.1875 8.296875 
z
" id="DejaVuSans-50"/>
       <path d="M 10.796875 72.90625 
L 49.515625 72.90625 
L 49.515625 64.59375 
L 19.828125 64.59375 
L 19.828125 46.734375 
Q 21.96875 47.46875 24.109375 47.828125 
Q 26.265625 48.1875 28.421875 48.1875 
Q 40.625 48.1875 47.75 41.5 
Q 54.890625 34.8125 54.890625 23.390625 
Q 54.890625 11.625 47.5625 5.09375 
Q 40.234375 -1.421875 26.90625 -1.421875 
Q 22.3125 -1.421875 17.546875 -0.640625 
Q 12.796875 0.140625 7.71875 1.703125 
L 7.71875 11.625 
Q 12.109375 9.234375 16.796875 8.0625 
Q 21.484375 6.890625 26.703125 6.890625 
Q 35.15625 6.890625 40.078125 11.328125 
Q 45.015625 15.765625 45.015625 23.390625 
Q 45.015625 31 40.078125 35.4375 
Q 35.15625 39.890625 26.703125 39.890625 
Q 22.75 39.890625 18.8125 39.015625 
Q 14.890625 38.140625 10.796875 36.28125 
z
" id="DejaVuSans-53"/>
      </defs>
      <g transform="translate(51.931211 307.844439)rotate(-45)scale(0.1 -0.1)">
       <use xlink:href="#DejaVuSans-49"/>
       <use x="63.623047" xlink:href="#DejaVuSans-56"/>
       <use x="127.246094" xlink:href="#DejaVuSans-50"/>
       <use x="190.869141" xlink:href="#DejaVuSans-53"/>
      </g>
     </g>
    </g>
    <g id="xtick_2">
     <g id="line2d_3">
      <path clip-path="url(#pe4a01f8376)" d="M 69.210401 277.475665 
L 69.210401 45.996875 
" style="fill:none;stroke:#b0b0b0;stroke-linecap:square;stroke-width:0.8;"/>
     </g>
     <g id="line2d_4">
      <g>
       <use style="stroke:#000000;stroke-width:0.8;" x="69.210401" xlink:href="#mdb3c8f3e76" y="277.475665"/>
      </g>
     </g>
     <g id="text_2">
      <!-- 1830 -->
      <defs>
       <path d="M 40.578125 39.3125 
Q 47.65625 37.796875 51.625 33 
Q 55.609375 28.21875 55.609375 21.1875 
Q 55.609375 10.40625 48.1875 4.484375 
Q 40.765625 -1.421875 27.09375 -1.421875 
Q 22.515625 -1.421875 17.65625 -0.515625 
Q 12.796875 0.390625 7.625 2.203125 
L 7.625 11.71875 
Q 11.71875 9.328125 16.59375 8.109375 
Q 21.484375 6.890625 26.8125 6.890625 
Q 36.078125 6.890625 40.9375 10.546875 
Q 45.796875 14.203125 45.796875 21.1875 
Q 45.796875 27.640625 41.28125 31.265625 
Q 36.765625 34.90625 28.71875 34.90625 
L 20.21875 34.90625 
L 20.21875 43.015625 
L 29.109375 43.015625 
Q 36.375 43.015625 40.234375 45.921875 
Q 44.09375 48.828125 44.09375 54.296875 
Q 44.09375 59.90625 40.109375 62.90625 
Q 36.140625 65.921875 28.71875 65.921875 
Q 24.65625 65.921875 20.015625 65.03125 
Q 15.375 64.15625 9.8125 62.3125 
L 9.8125 71.09375 
Q 15.4375 72.65625 20.34375 73.4375 
Q 25.25 74.21875 29.59375 74.21875 
Q 40.828125 74.21875 47.359375 69.109375 
Q 53.90625 64.015625 53.90625 55.328125 
Q 53.90625 49.265625 50.4375 45.09375 
Q 46.96875 40.921875 40.578125 39.3125 
z
" id="DejaVuSans-51"/>
       <path d="M 31.78125 66.40625 
Q 24.171875 66.40625 20.328125 58.90625 
Q 16.5 51.421875 16.5 36.375 
Q 16.5 21.390625 20.328125 13.890625 
Q 24.171875 6.390625 31.78125 6.390625 
Q 39.453125 6.390625 43.28125 13.890625 
Q 47.125 21.390625 47.125 36.375 
Q 47.125 51.421875 43.28125 58.90625 
Q 39.453125 66.40625 31.78125 66.40625 
z
M 31.78125 74.21875 
Q 44.046875 74.21875 50.515625 64.515625 
Q 56.984375 54.828125 56.984375 36.375 
Q 56.984375 17.96875 50.515625 8.265625 
Q 44.046875 -1.421875 31.78125 -1.421875 
Q 19.53125 -1.421875 13.0625 8.265625 
Q 6.59375 17.96875 6.59375 36.375 
Q 6.59375 54.828125 13.0625 64.515625 
Q 19.53125 74.21875 31.78125 74.21875 
z
" id="DejaVuSans-48"/>
      </defs>
      <g transform="translate(62.16364 307.844439)rotate(-45)scale(0.1 -0.1)">
       <use xlink:href="#DejaVuSans-49"/>
       <use x="63.623047" xlink:href="#DejaVuSans-56"/>
       <use x="127.246094" xlink:href="#DejaVuSans-51"/>
       <use x="190.869141" xlink:href="#DejaVuSans-48"/>
      </g>
     </g>
    </g>
    <g id="xtick_3">
     <g id="line2d_5">
      <path clip-path="url(#pe4a01f8376)" d="M 79.442831 277.475665 
L 79.442831 45.996875 
" style="fill:none;stroke:#b0b0b0;stroke-linecap:square;stroke-width:0.8;"/>
     </g>
     <g id="line2d_6">
      <g>
       <use style="stroke:#000000;stroke-width:0.8;" x="79.442831" xlink:href="#mdb3c8f3e76" y="277.475665"/>
      </g>
     </g>
     <g id="text_3">
      <!-- 1835 -->
      <g transform="translate(72.39607 307.844439)rotate(-45)scale(0.1 -0.1)">
       <use xlink:href="#DejaVuSans-49"/>
       <use x="63.623047" xlink:href="#DejaVuSans-56"/>
       <use x="127.246094" xlink:href="#DejaVuSans-51"/>
       <use x="190.869141" xlink:href="#DejaVuSans-53"/>
      </g>
     </g>
    </g>
    <g id="xtick_4">
     <g id="line2d_7">
      <path clip-path="url(#pe4a01f8376)" d="M 89.67526 277.475665 
L 89.67526 45.996875 
" style="fill:none;stroke:#b0b0b0;stroke-linecap:square;stroke-width:0.8;"/>
     </g>
     <g id="line2d_8">
      <g>
       <use style="stroke:#000000;stroke-width:0.8;" x="89.67526" xlink:href="#mdb3c8f3e76" y="277.475665"/>
      </g>
     </g>
     <g id="text_4">
      <!-- 1840 -->
      <defs>
       <path d="M 37.796875 64.3125 
L 12.890625 25.390625 
L 37.796875 25.390625 
z
M 35.203125 72.90625 
L 47.609375 72.90625 
L 47.609375 25.390625 
L 58.015625 25.390625 
L 58.015625 17.1875 
L 47.609375 17.1875 
L 47.609375 0 
L 37.796875 0 
L 37.796875 17.1875 
L 4.890625 17.1875 
L 4.890625 26.703125 
z
" id="DejaVuSans-52"/>
      </defs>
      <g transform="translate(82.628499 307.844439)rotate(-45)scale(0.1 -0.1)">
       <use xlink:href="#DejaVuSans-49"/>
       <use x="63.623047" xlink:href="#DejaVuSans-56"/>
       <use x="127.246094" xlink:href="#DejaVuSans-52"/>
       <use x="190.869141" xlink:href="#DejaVuSans-48"/>
      </g>
     </g>
    </g>
    <g id="xtick_5">
     <g id="line2d_9">
      <path clip-path="url(#pe4a01f8376)" d="M 99.90769 277.475665 
L 99.90769 45.996875 
" style="fill:none;stroke:#b0b0b0;stroke-linecap:square;stroke-width:0.8;"/>
     </g>
     <g id="line2d_10">
      <g>
       <use style="stroke:#000000;stroke-width:0.8;" x="99.90769" xlink:href="#mdb3c8f3e76" y="277.475665"/>
      </g>
     </g>
     <g id="text_5">
      <!-- 1845 -->
      <g transform="translate(92.860929 307.844439)rotate(-45)scale(0.1 -0.1)">
       <use xlink:href="#DejaVuSans-49"/>
       <use x="63.623047" xlink:href="#DejaVuSans-56"/>
       <use x="127.246094" xlink:href="#DejaVuSans-52"/>
       <use x="190.869141" xlink:href="#DejaVuSans-53"/>
      </g>
     </g>
    </g>
    <g id="xtick_6">
     <g id="line2d_11">
      <path clip-path="url(#pe4a01f8376)" d="M 110.140119 277.475665 
L 110.140119 45.996875 
" style="fill:none;stroke:#b0b0b0;stroke-linecap:square;stroke-width:0.8;"/>
     </g>
     <g id="line2d_12">
      <g>
       <use style="stroke:#000000;stroke-width:0.8;" x="110.140119" xlink:href="#mdb3c8f3e76" y="277.475665"/>
      </g>
     </g>
     <g id="text_6">
      <!-- 1850 -->
      <g transform="translate(103.093358 307.844439)rotate(-45)scale(0.1 -0.1)">
       <use xlink:href="#DejaVuSans-49"/>
       <use x="63.623047" xlink:href="#DejaVuSans-56"/>
       <use x="127.246094" xlink:href="#DejaVuSans-53"/>
       <use x="190.869141" xlink:href="#DejaVuSans-48"/>
      </g>
     </g>
    </g>
    <g id="xtick_7">
     <g id="line2d_13">
      <path clip-path="url(#pe4a01f8376)" d="M 120.372549 277.475665 
L 120.372549 45.996875 
" style="fill:none;stroke:#b0b0b0;stroke-linecap:square;stroke-width:0.8;"/>
     </g>
     <g id="line2d_14">
      <g>
       <use style="stroke:#000000;stroke-width:0.8;" x="120.372549" xlink:href="#mdb3c8f3e76" y="277.475665"/>
      </g>
     </g>
     <g id="text_7">
      <!-- 1855 -->
      <g transform="translate(113.325788 307.844439)rotate(-45)scale(0.1 -0.1)">
       <use xlink:href="#DejaVuSans-49"/>
       <use x="63.623047" xlink:href="#DejaVuSans-56"/>
       <use x="127.246094" xlink:href="#DejaVuSans-53"/>
       <use x="190.869141" xlink:href="#DejaVuSans-53"/>
      </g>
     </g>
    </g>
    <g id="xtick_8">
     <g id="line2d_15">
      <path clip-path="url(#pe4a01f8376)" d="M 130.604978 277.475665 
L 130.604978 45.996875 
" style="fill:none;stroke:#b0b0b0;stroke-linecap:square;stroke-width:0.8;"/>
     </g>
     <g id="line2d_16">
      <g>
       <use style="stroke:#000000;stroke-width:0.8;" x="130.604978" xlink:href="#mdb3c8f3e76" y="277.475665"/>
      </g>
     </g>
     <g id="text_8">
      <!-- 1860 -->
      <defs>
       <path d="M 33.015625 40.375 
Q 26.375 40.375 22.484375 35.828125 
Q 18.609375 31.296875 18.609375 23.390625 
Q 18.609375 15.53125 22.484375 10.953125 
Q 26.375 6.390625 33.015625 6.390625 
Q 39.65625 6.390625 43.53125 10.953125 
Q 47.40625 15.53125 47.40625 23.390625 
Q 47.40625 31.296875 43.53125 35.828125 
Q 39.65625 40.375 33.015625 40.375 
z
M 52.59375 71.296875 
L 52.59375 62.3125 
Q 48.875 64.0625 45.09375 64.984375 
Q 41.3125 65.921875 37.59375 65.921875 
Q 27.828125 65.921875 22.671875 59.328125 
Q 17.53125 52.734375 16.796875 39.40625 
Q 19.671875 43.65625 24.015625 45.921875 
Q 28.375 48.1875 33.59375 48.1875 
Q 44.578125 48.1875 50.953125 41.515625 
Q 57.328125 34.859375 57.328125 23.390625 
Q 57.328125 12.15625 50.6875 5.359375 
Q 44.046875 -1.421875 33.015625 -1.421875 
Q 20.359375 -1.421875 13.671875 8.265625 
Q 6.984375 17.96875 6.984375 36.375 
Q 6.984375 53.65625 15.1875 63.9375 
Q 23.390625 74.21875 37.203125 74.21875 
Q 40.921875 74.21875 44.703125 73.484375 
Q 48.484375 72.75 52.59375 71.296875 
z
" id="DejaVuSans-54"/>
      </defs>
      <g transform="translate(123.558217 307.844439)rotate(-45)scale(0.1 -0.1)">
       <use xlink:href="#DejaVuSans-49"/>
       <use x="63.623047" xlink:href="#DejaVuSans-56"/>
       <use x="127.246094" xlink:href="#DejaVuSans-54"/>
       <use x="190.869141" xlink:href="#DejaVuSans-48"/>
      </g>
     </g>
    </g>
    <g id="xtick_9">
     <g id="line2d_17">
      <path clip-path="url(#pe4a01f8376)" d="M 140.837408 277.475665 
L 140.837408 45.996875 
" style="fill:none;stroke:#b0b0b0;stroke-linecap:square;stroke-width:0.8;"/>
     </g>
     <g id="line2d_18">
      <g>
       <use style="stroke:#000000;stroke-width:0.8;" x="140.837408" xlink:href="#mdb3c8f3e76" y="277.475665"/>
      </g>
     </g>
     <g id="text_9">
      <!-- 1865 -->
      <g transform="translate(133.790646 307.844439)rotate(-45)scale(0.1 -0.1)">
       <use xlink:href="#DejaVuSans-49"/>
       <use x="63.623047" xlink:href="#DejaVuSans-56"/>
       <use x="127.246094" xlink:href="#DejaVuSans-54"/>
       <use x="190.869141" xlink:href="#DejaVuSans-53"/>
      </g>
     </g>
    </g>
    <g id="xtick_10">
     <g id="line2d_19">
      <path clip-path="url(#pe4a01f8376)" d="M 151.069837 277.475665 
L 151.069837 45.996875 
" style="fill:none;stroke:#b0b0b0;stroke-linecap:square;stroke-width:0.8;"/>
     </g>
     <g id="line2d_20">
      <g>
       <use style="stroke:#000000;stroke-width:0.8;" x="151.069837" xlink:href="#mdb3c8f3e76" y="277.475665"/>
      </g>
     </g>
     <g id="text_10">
      <!-- 1870 -->
      <defs>
       <path d="M 8.203125 72.90625 
L 55.078125 72.90625 
L 55.078125 68.703125 
L 28.609375 0 
L 18.3125 0 
L 43.21875 64.59375 
L 8.203125 64.59375 
z
" id="DejaVuSans-55"/>
      </defs>
      <g transform="translate(144.023076 307.844439)rotate(-45)scale(0.1 -0.1)">
       <use xlink:href="#DejaVuSans-49"/>
       <use x="63.623047" xlink:href="#DejaVuSans-56"/>
       <use x="127.246094" xlink:href="#DejaVuSans-55"/>
       <use x="190.869141" xlink:href="#DejaVuSans-48"/>
      </g>
     </g>
    </g>
    <g id="xtick_11">
     <g id="line2d_21">
      <path clip-path="url(#pe4a01f8376)" d="M 161.302266 277.475665 
L 161.302266 45.996875 
" style="fill:none;stroke:#b0b0b0;stroke-linecap:square;stroke-width:0.8;"/>
     </g>
     <g id="line2d_22">
      <g>
       <use style="stroke:#000000;stroke-width:0.8;" x="161.302266" xlink:href="#mdb3c8f3e76" y="277.475665"/>
      </g>
     </g>
     <g id="text_11">
      <!-- 1875 -->
      <g transform="translate(154.255505 307.844439)rotate(-45)scale(0.1 -0.1)">
       <use xlink:href="#DejaVuSans-49"/>
       <use x="63.623047" xlink:href="#DejaVuSans-56"/>
       <use x="127.246094" xlink:href="#DejaVuSans-55"/>
       <use x="190.869141" xlink:href="#DejaVuSans-53"/>
      </g>
     </g>
    </g>
    <g id="xtick_12">
     <g id="line2d_23">
      <path clip-path="url(#pe4a01f8376)" d="M 171.534696 277.475665 
L 171.534696 45.996875 
" style="fill:none;stroke:#b0b0b0;stroke-linecap:square;stroke-width:0.8;"/>
     </g>
     <g id="line2d_24">
      <g>
       <use style="stroke:#000000;stroke-width:0.8;" x="171.534696" xlink:href="#mdb3c8f3e76" y="277.475665"/>
      </g>
     </g>
     <g id="text_12">
      <!-- 1880 -->
      <g transform="translate(164.487935 307.844439)rotate(-45)scale(0.1 -0.1)">
       <use xlink:href="#DejaVuSans-49"/>
       <use x="63.623047" xlink:href="#DejaVuSans-56"/>
       <use x="127.246094" xlink:href="#DejaVuSans-56"/>
       <use x="190.869141" xlink:href="#DejaVuSans-48"/>
      </g>
     </g>
    </g>
    <g id="xtick_13">
     <g id="line2d_25">
      <path clip-path="url(#pe4a01f8376)" d="M 181.767125 277.475665 
L 181.767125 45.996875 
" style="fill:none;stroke:#b0b0b0;stroke-linecap:square;stroke-width:0.8;"/>
     </g>
     <g id="line2d_26">
      <g>
       <use style="stroke:#000000;stroke-width:0.8;" x="181.767125" xlink:href="#mdb3c8f3e76" y="277.475665"/>
      </g>
     </g>
     <g id="text_13">
      <!-- 1885 -->
      <g transform="translate(174.720364 307.844439)rotate(-45)scale(0.1 -0.1)">
       <use xlink:href="#DejaVuSans-49"/>
       <use x="63.623047" xlink:href="#DejaVuSans-56"/>
       <use x="127.246094" xlink:href="#DejaVuSans-56"/>
       <use x="190.869141" xlink:href="#DejaVuSans-53"/>
      </g>
     </g>
    </g>
    <g id="xtick_14">
     <g id="line2d_27">
      <path clip-path="url(#pe4a01f8376)" d="M 191.999555 277.475665 
L 191.999555 45.996875 
" style="fill:none;stroke:#b0b0b0;stroke-linecap:square;stroke-width:0.8;"/>
     </g>
     <g id="line2d_28">
      <g>
       <use style="stroke:#000000;stroke-width:0.8;" x="191.999555" xlink:href="#mdb3c8f3e76" y="277.475665"/>
      </g>
     </g>
     <g id="text_14">
      <!-- 1890 -->
      <defs>
       <path d="M 10.984375 1.515625 
L 10.984375 10.5 
Q 14.703125 8.734375 18.5 7.8125 
Q 22.3125 6.890625 25.984375 6.890625 
Q 35.75 6.890625 40.890625 13.453125 
Q 46.046875 20.015625 46.78125 33.40625 
Q 43.953125 29.203125 39.59375 26.953125 
Q 35.25 24.703125 29.984375 24.703125 
Q 19.046875 24.703125 12.671875 31.3125 
Q 6.296875 37.9375 6.296875 49.421875 
Q 6.296875 60.640625 12.9375 67.421875 
Q 19.578125 74.21875 30.609375 74.21875 
Q 43.265625 74.21875 49.921875 64.515625 
Q 56.59375 54.828125 56.59375 36.375 
Q 56.59375 19.140625 48.40625 8.859375 
Q 40.234375 -1.421875 26.421875 -1.421875 
Q 22.703125 -1.421875 18.890625 -0.6875 
Q 15.09375 0.046875 10.984375 1.515625 
z
M 30.609375 32.421875 
Q 37.25 32.421875 41.125 36.953125 
Q 45.015625 41.5 45.015625 49.421875 
Q 45.015625 57.28125 41.125 61.84375 
Q 37.25 66.40625 30.609375 66.40625 
Q 23.96875 66.40625 20.09375 61.84375 
Q 16.21875 57.28125 16.21875 49.421875 
Q 16.21875 41.5 20.09375 36.953125 
Q 23.96875 32.421875 30.609375 32.421875 
z
" id="DejaVuSans-57"/>
      </defs>
      <g transform="translate(184.952794 307.844439)rotate(-45)scale(0.1 -0.1)">
       <use xlink:href="#DejaVuSans-49"/>
       <use x="63.623047" xlink:href="#DejaVuSans-56"/>
       <use x="127.246094" xlink:href="#DejaVuSans-57"/>
       <use x="190.869141" xlink:href="#DejaVuSans-48"/>
      </g>
     </g>
    </g>
    <g id="xtick_15">
     <g id="line2d_29">
      <path clip-path="url(#pe4a01f8376)" d="M 202.231984 277.475665 
L 202.231984 45.996875 
" style="fill:none;stroke:#b0b0b0;stroke-linecap:square;stroke-width:0.8;"/>
     </g>
     <g id="line2d_30">
      <g>
       <use style="stroke:#000000;stroke-width:0.8;" x="202.231984" xlink:href="#mdb3c8f3e76" y="277.475665"/>
      </g>
     </g>
     <g id="text_15">
      <!-- 1895 -->
      <g transform="translate(195.185223 307.844439)rotate(-45)scale(0.1 -0.1)">
       <use xlink:href="#DejaVuSans-49"/>
       <use x="63.623047" xlink:href="#DejaVuSans-56"/>
       <use x="127.246094" xlink:href="#DejaVuSans-57"/>
       <use x="190.869141" xlink:href="#DejaVuSans-53"/>
      </g>
     </g>
    </g>
    <g id="xtick_16">
     <g id="line2d_31">
      <path clip-path="url(#pe4a01f8376)" d="M 212.464414 277.475665 
L 212.464414 45.996875 
" style="fill:none;stroke:#b0b0b0;stroke-linecap:square;stroke-width:0.8;"/>
     </g>
     <g id="line2d_32">
      <g>
       <use style="stroke:#000000;stroke-width:0.8;" x="212.464414" xlink:href="#mdb3c8f3e76" y="277.475665"/>
      </g>
     </g>
     <g id="text_16">
      <!-- 1900 -->
      <g transform="translate(205.417653 307.844439)rotate(-45)scale(0.1 -0.1)">
       <use xlink:href="#DejaVuSans-49"/>
       <use x="63.623047" xlink:href="#DejaVuSans-57"/>
       <use x="127.246094" xlink:href="#DejaVuSans-48"/>
       <use x="190.869141" xlink:href="#DejaVuSans-48"/>
      </g>
     </g>
    </g>
    <g id="xtick_17">
     <g id="line2d_33">
      <path clip-path="url(#pe4a01f8376)" d="M 222.696843 277.475665 
L 222.696843 45.996875 
" style="fill:none;stroke:#b0b0b0;stroke-linecap:square;stroke-width:0.8;"/>
     </g>
     <g id="line2d_34">
      <g>
       <use style="stroke:#000000;stroke-width:0.8;" x="222.696843" xlink:href="#mdb3c8f3e76" y="277.475665"/>
      </g>
     </g>
     <g id="text_17">
      <!-- 1905 -->
      <g transform="translate(215.650082 307.844439)rotate(-45)scale(0.1 -0.1)">
       <use xlink:href="#DejaVuSans-49"/>
       <use x="63.623047" xlink:href="#DejaVuSans-57"/>
       <use x="127.246094" xlink:href="#DejaVuSans-48"/>
       <use x="190.869141" xlink:href="#DejaVuSans-53"/>
      </g>
     </g>
    </g>
    <g id="xtick_18">
     <g id="line2d_35">
      <path clip-path="url(#pe4a01f8376)" d="M 232.929273 277.475665 
L 232.929273 45.996875 
" style="fill:none;stroke:#b0b0b0;stroke-linecap:square;stroke-width:0.8;"/>
     </g>
     <g id="line2d_36">
      <g>
       <use style="stroke:#000000;stroke-width:0.8;" x="232.929273" xlink:href="#mdb3c8f3e76" y="277.475665"/>
      </g>
     </g>
     <g id="text_18">
      <!-- 1910 -->
      <g transform="translate(225.882512 307.844439)rotate(-45)scale(0.1 -0.1)">
       <use xlink:href="#DejaVuSans-49"/>
       <use x="63.623047" xlink:href="#DejaVuSans-57"/>
       <use x="127.246094" xlink:href="#DejaVuSans-49"/>
       <use x="190.869141" xlink:href="#DejaVuSans-48"/>
      </g>
     </g>
    </g>
    <g id="xtick_19">
     <g id="line2d_37">
      <path clip-path="url(#pe4a01f8376)" d="M 243.161702 277.475665 
L 243.161702 45.996875 
" style="fill:none;stroke:#b0b0b0;stroke-linecap:square;stroke-width:0.8;"/>
     </g>
     <g id="line2d_38">
      <g>
       <use style="stroke:#000000;stroke-width:0.8;" x="243.161702" xlink:href="#mdb3c8f3e76" y="277.475665"/>
      </g>
     </g>
     <g id="text_19">
      <!-- 1915 -->
      <g transform="translate(236.114941 307.844439)rotate(-45)scale(0.1 -0.1)">
       <use xlink:href="#DejaVuSans-49"/>
       <use x="63.623047" xlink:href="#DejaVuSans-57"/>
       <use x="127.246094" xlink:href="#DejaVuSans-49"/>
       <use x="190.869141" xlink:href="#DejaVuSans-53"/>
      </g>
     </g>
    </g>
    <g id="xtick_20">
     <g id="line2d_39">
      <path clip-path="url(#pe4a01f8376)" d="M 253.394132 277.475665 
L 253.394132 45.996875 
" style="fill:none;stroke:#b0b0b0;stroke-linecap:square;stroke-width:0.8;"/>
     </g>
     <g id="line2d_40">
      <g>
       <use style="stroke:#000000;stroke-width:0.8;" x="253.394132" xlink:href="#mdb3c8f3e76" y="277.475665"/>
      </g>
     </g>
     <g id="text_20">
      <!-- 1920 -->
      <g transform="translate(246.347371 307.844439)rotate(-45)scale(0.1 -0.1)">
       <use xlink:href="#DejaVuSans-49"/>
       <use x="63.623047" xlink:href="#DejaVuSans-57"/>
       <use x="127.246094" xlink:href="#DejaVuSans-50"/>
       <use x="190.869141" xlink:href="#DejaVuSans-48"/>
      </g>
     </g>
    </g>
    <g id="xtick_21">
     <g id="line2d_41">
      <path clip-path="url(#pe4a01f8376)" d="M 263.626561 277.475665 
L 263.626561 45.996875 
" style="fill:none;stroke:#b0b0b0;stroke-linecap:square;stroke-width:0.8;"/>
     </g>
     <g id="line2d_42">
      <g>
       <use style="stroke:#000000;stroke-width:0.8;" x="263.626561" xlink:href="#mdb3c8f3e76" y="277.475665"/>
      </g>
     </g>
     <g id="text_21">
      <!-- 1925 -->
      <g transform="translate(256.5798 307.844439)rotate(-45)scale(0.1 -0.1)">
       <use xlink:href="#DejaVuSans-49"/>
       <use x="63.623047" xlink:href="#DejaVuSans-57"/>
       <use x="127.246094" xlink:href="#DejaVuSans-50"/>
       <use x="190.869141" xlink:href="#DejaVuSans-53"/>
      </g>
     </g>
    </g>
    <g id="xtick_22">
     <g id="line2d_43">
      <path clip-path="url(#pe4a01f8376)" d="M 273.858991 277.475665 
L 273.858991 45.996875 
" style="fill:none;stroke:#b0b0b0;stroke-linecap:square;stroke-width:0.8;"/>
     </g>
     <g id="line2d_44">
      <g>
       <use style="stroke:#000000;stroke-width:0.8;" x="273.858991" xlink:href="#mdb3c8f3e76" y="277.475665"/>
      </g>
     </g>
     <g id="text_22">
      <!-- 1930 -->
      <g transform="translate(266.81223 307.844439)rotate(-45)scale(0.1 -0.1)">
       <use xlink:href="#DejaVuSans-49"/>
       <use x="63.623047" xlink:href="#DejaVuSans-57"/>
       <use x="127.246094" xlink:href="#DejaVuSans-51"/>
       <use x="190.869141" xlink:href="#DejaVuSans-48"/>
      </g>
     </g>
    </g>
    <g id="xtick_23">
     <g id="line2d_45">
      <path clip-path="url(#pe4a01f8376)" d="M 284.09142 277.475665 
L 284.09142 45.996875 
" style="fill:none;stroke:#b0b0b0;stroke-linecap:square;stroke-width:0.8;"/>
     </g>
     <g id="line2d_46">
      <g>
       <use style="stroke:#000000;stroke-width:0.8;" x="284.09142" xlink:href="#mdb3c8f3e76" y="277.475665"/>
      </g>
     </g>
     <g id="text_23">
      <!-- 1935 -->
      <g transform="translate(277.044659 307.844439)rotate(-45)scale(0.1 -0.1)">
       <use xlink:href="#DejaVuSans-49"/>
       <use x="63.623047" xlink:href="#DejaVuSans-57"/>
       <use x="127.246094" xlink:href="#DejaVuSans-51"/>
       <use x="190.869141" xlink:href="#DejaVuSans-53"/>
      </g>
     </g>
    </g>
    <g id="xtick_24">
     <g id="line2d_47">
      <path clip-path="url(#pe4a01f8376)" d="M 294.323849 277.475665 
L 294.323849 45.996875 
" style="fill:none;stroke:#b0b0b0;stroke-linecap:square;stroke-width:0.8;"/>
     </g>
     <g id="line2d_48">
      <g>
       <use style="stroke:#000000;stroke-width:0.8;" x="294.323849" xlink:href="#mdb3c8f3e76" y="277.475665"/>
      </g>
     </g>
     <g id="text_24">
      <!-- 1940 -->
      <g transform="translate(287.277088 307.844439)rotate(-45)scale(0.1 -0.1)">
       <use xlink:href="#DejaVuSans-49"/>
       <use x="63.623047" xlink:href="#DejaVuSans-57"/>
       <use x="127.246094" xlink:href="#DejaVuSans-52"/>
       <use x="190.869141" xlink:href="#DejaVuSans-48"/>
      </g>
     </g>
    </g>
    <g id="xtick_25">
     <g id="line2d_49">
      <path clip-path="url(#pe4a01f8376)" d="M 304.556279 277.475665 
L 304.556279 45.996875 
" style="fill:none;stroke:#b0b0b0;stroke-linecap:square;stroke-width:0.8;"/>
     </g>
     <g id="line2d_50">
      <g>
       <use style="stroke:#000000;stroke-width:0.8;" x="304.556279" xlink:href="#mdb3c8f3e76" y="277.475665"/>
      </g>
     </g>
     <g id="text_25">
      <!-- 1945 -->
      <g transform="translate(297.509518 307.844439)rotate(-45)scale(0.1 -0.1)">
       <use xlink:href="#DejaVuSans-49"/>
       <use x="63.623047" xlink:href="#DejaVuSans-57"/>
       <use x="127.246094" xlink:href="#DejaVuSans-52"/>
       <use x="190.869141" xlink:href="#DejaVuSans-53"/>
      </g>
     </g>
    </g>
    <g id="xtick_26">
     <g id="line2d_51">
      <path clip-path="url(#pe4a01f8376)" d="M 314.788708 277.475665 
L 314.788708 45.996875 
" style="fill:none;stroke:#b0b0b0;stroke-linecap:square;stroke-width:0.8;"/>
     </g>
     <g id="line2d_52">
      <g>
       <use style="stroke:#000000;stroke-width:0.8;" x="314.788708" xlink:href="#mdb3c8f3e76" y="277.475665"/>
      </g>
     </g>
     <g id="text_26">
      <!-- 1950 -->
      <g transform="translate(307.741947 307.844439)rotate(-45)scale(0.1 -0.1)">
       <use xlink:href="#DejaVuSans-49"/>
       <use x="63.623047" xlink:href="#DejaVuSans-57"/>
       <use x="127.246094" xlink:href="#DejaVuSans-53"/>
       <use x="190.869141" xlink:href="#DejaVuSans-48"/>
      </g>
     </g>
    </g>
    <g id="xtick_27">
     <g id="line2d_53">
      <path clip-path="url(#pe4a01f8376)" d="M 325.021138 277.475665 
L 325.021138 45.996875 
" style="fill:none;stroke:#b0b0b0;stroke-linecap:square;stroke-width:0.8;"/>
     </g>
     <g id="line2d_54">
      <g>
       <use style="stroke:#000000;stroke-width:0.8;" x="325.021138" xlink:href="#mdb3c8f3e76" y="277.475665"/>
      </g>
     </g>
     <g id="text_27">
      <!-- 1955 -->
      <g transform="translate(317.974377 307.844439)rotate(-45)scale(0.1 -0.1)">
       <use xlink:href="#DejaVuSans-49"/>
       <use x="63.623047" xlink:href="#DejaVuSans-57"/>
       <use x="127.246094" xlink:href="#DejaVuSans-53"/>
       <use x="190.869141" xlink:href="#DejaVuSans-53"/>
      </g>
     </g>
    </g>
    <g id="xtick_28">
     <g id="line2d_55">
      <path clip-path="url(#pe4a01f8376)" d="M 335.253567 277.475665 
L 335.253567 45.996875 
" style="fill:none;stroke:#b0b0b0;stroke-linecap:square;stroke-width:0.8;"/>
     </g>
     <g id="line2d_56">
      <g>
       <use style="stroke:#000000;stroke-width:0.8;" x="335.253567" xlink:href="#mdb3c8f3e76" y="277.475665"/>
      </g>
     </g>
     <g id="text_28">
      <!-- 1960 -->
      <g transform="translate(328.206806 307.844439)rotate(-45)scale(0.1 -0.1)">
       <use xlink:href="#DejaVuSans-49"/>
       <use x="63.623047" xlink:href="#DejaVuSans-57"/>
       <use x="127.246094" xlink:href="#DejaVuSans-54"/>
       <use x="190.869141" xlink:href="#DejaVuSans-48"/>
      </g>
     </g>
    </g>
    <g id="xtick_29">
     <g id="line2d_57">
      <path clip-path="url(#pe4a01f8376)" d="M 345.485997 277.475665 
L 345.485997 45.996875 
" style="fill:none;stroke:#b0b0b0;stroke-linecap:square;stroke-width:0.8;"/>
     </g>
     <g id="line2d_58">
      <g>
       <use style="stroke:#000000;stroke-width:0.8;" x="345.485997" xlink:href="#mdb3c8f3e76" y="277.475665"/>
      </g>
     </g>
     <g id="text_29">
      <!-- 1965 -->
      <g transform="translate(338.439236 307.844439)rotate(-45)scale(0.1 -0.1)">
       <use xlink:href="#DejaVuSans-49"/>
       <use x="63.623047" xlink:href="#DejaVuSans-57"/>
       <use x="127.246094" xlink:href="#DejaVuSans-54"/>
       <use x="190.869141" xlink:href="#DejaVuSans-53"/>
      </g>
     </g>
    </g>
    <g id="xtick_30">
     <g id="line2d_59">
      <path clip-path="url(#pe4a01f8376)" d="M 355.718426 277.475665 
L 355.718426 45.996875 
" style="fill:none;stroke:#b0b0b0;stroke-linecap:square;stroke-width:0.8;"/>
     </g>
     <g id="line2d_60">
      <g>
       <use style="stroke:#000000;stroke-width:0.8;" x="355.718426" xlink:href="#mdb3c8f3e76" y="277.475665"/>
      </g>
     </g>
     <g id="text_30">
      <!-- 1970 -->
      <g transform="translate(348.671665 307.844439)rotate(-45)scale(0.1 -0.1)">
       <use xlink:href="#DejaVuSans-49"/>
       <use x="63.623047" xlink:href="#DejaVuSans-57"/>
       <use x="127.246094" xlink:href="#DejaVuSans-55"/>
       <use x="190.869141" xlink:href="#DejaVuSans-48"/>
      </g>
     </g>
    </g>
    <g id="xtick_31">
     <g id="line2d_61">
      <path clip-path="url(#pe4a01f8376)" d="M 365.950856 277.475665 
L 365.950856 45.996875 
" style="fill:none;stroke:#b0b0b0;stroke-linecap:square;stroke-width:0.8;"/>
     </g>
     <g id="line2d_62">
      <g>
       <use style="stroke:#000000;stroke-width:0.8;" x="365.950856" xlink:href="#mdb3c8f3e76" y="277.475665"/>
      </g>
     </g>
     <g id="text_31">
      <!-- 1975 -->
      <g transform="translate(358.904095 307.844439)rotate(-45)scale(0.1 -0.1)">
       <use xlink:href="#DejaVuSans-49"/>
       <use x="63.623047" xlink:href="#DejaVuSans-57"/>
       <use x="127.246094" xlink:href="#DejaVuSans-55"/>
       <use x="190.869141" xlink:href="#DejaVuSans-53"/>
      </g>
     </g>
    </g>
    <g id="xtick_32">
     <g id="line2d_63">
      <path clip-path="url(#pe4a01f8376)" d="M 376.183285 277.475665 
L 376.183285 45.996875 
" style="fill:none;stroke:#b0b0b0;stroke-linecap:square;stroke-width:0.8;"/>
     </g>
     <g id="line2d_64">
      <g>
       <use style="stroke:#000000;stroke-width:0.8;" x="376.183285" xlink:href="#mdb3c8f3e76" y="277.475665"/>
      </g>
     </g>
     <g id="text_32">
      <!-- 1980 -->
      <g transform="translate(369.136524 307.844439)rotate(-45)scale(0.1 -0.1)">
       <use xlink:href="#DejaVuSans-49"/>
       <use x="63.623047" xlink:href="#DejaVuSans-57"/>
       <use x="127.246094" xlink:href="#DejaVuSans-56"/>
       <use x="190.869141" xlink:href="#DejaVuSans-48"/>
      </g>
     </g>
    </g>
    <g id="xtick_33">
     <g id="line2d_65">
      <path clip-path="url(#pe4a01f8376)" d="M 386.415715 277.475665 
L 386.415715 45.996875 
" style="fill:none;stroke:#b0b0b0;stroke-linecap:square;stroke-width:0.8;"/>
     </g>
     <g id="line2d_66">
      <g>
       <use style="stroke:#000000;stroke-width:0.8;" x="386.415715" xlink:href="#mdb3c8f3e76" y="277.475665"/>
      </g>
     </g>
     <g id="text_33">
      <!-- 1985 -->
      <g transform="translate(379.368954 307.844439)rotate(-45)scale(0.1 -0.1)">
       <use xlink:href="#DejaVuSans-49"/>
       <use x="63.623047" xlink:href="#DejaVuSans-57"/>
       <use x="127.246094" xlink:href="#DejaVuSans-56"/>
       <use x="190.869141" xlink:href="#DejaVuSans-53"/>
      </g>
     </g>
    </g>
    <g id="xtick_34">
     <g id="line2d_67">
      <path clip-path="url(#pe4a01f8376)" d="M 396.648144 277.475665 
L 396.648144 45.996875 
" style="fill:none;stroke:#b0b0b0;stroke-linecap:square;stroke-width:0.8;"/>
     </g>
     <g id="line2d_68">
      <g>
       <use style="stroke:#000000;stroke-width:0.8;" x="396.648144" xlink:href="#mdb3c8f3e76" y="277.475665"/>
      </g>
     </g>
     <g id="text_34">
      <!-- 1990 -->
      <g transform="translate(389.601383 307.844439)rotate(-45)scale(0.1 -0.1)">
       <use xlink:href="#DejaVuSans-49"/>
       <use x="63.623047" xlink:href="#DejaVuSans-57"/>
       <use x="127.246094" xlink:href="#DejaVuSans-57"/>
       <use x="190.869141" xlink:href="#DejaVuSans-48"/>
      </g>
     </g>
    </g>
    <g id="xtick_35">
     <g id="line2d_69">
      <path clip-path="url(#pe4a01f8376)" d="M 406.880574 277.475665 
L 406.880574 45.996875 
" style="fill:none;stroke:#b0b0b0;stroke-linecap:square;stroke-width:0.8;"/>
     </g>
     <g id="line2d_70">
      <g>
       <use style="stroke:#000000;stroke-width:0.8;" x="406.880574" xlink:href="#mdb3c8f3e76" y="277.475665"/>
      </g>
     </g>
     <g id="text_35">
      <!-- 1995 -->
      <g transform="translate(399.833813 307.844439)rotate(-45)scale(0.1 -0.1)">
       <use xlink:href="#DejaVuSans-49"/>
       <use x="63.623047" xlink:href="#DejaVuSans-57"/>
       <use x="127.246094" xlink:href="#DejaVuSans-57"/>
       <use x="190.869141" xlink:href="#DejaVuSans-53"/>
      </g>
     </g>
    </g>
    <g id="xtick_36">
     <g id="line2d_71">
      <path clip-path="url(#pe4a01f8376)" d="M 417.113003 277.475665 
L 417.113003 45.996875 
" style="fill:none;stroke:#b0b0b0;stroke-linecap:square;stroke-width:0.8;"/>
     </g>
     <g id="line2d_72">
      <g>
       <use style="stroke:#000000;stroke-width:0.8;" x="417.113003" xlink:href="#mdb3c8f3e76" y="277.475665"/>
      </g>
     </g>
     <g id="text_36">
      <!-- 2000 -->
      <g transform="translate(410.066242 307.844439)rotate(-45)scale(0.1 -0.1)">
       <use xlink:href="#DejaVuSans-50"/>
       <use x="63.623047" xlink:href="#DejaVuSans-48"/>
       <use x="127.246094" xlink:href="#DejaVuSans-48"/>
       <use x="190.869141" xlink:href="#DejaVuSans-48"/>
      </g>
     </g>
    </g>
    <g id="xtick_37">
     <g id="line2d_73">
      <path clip-path="url(#pe4a01f8376)" d="M 427.345433 277.475665 
L 427.345433 45.996875 
" style="fill:none;stroke:#b0b0b0;stroke-linecap:square;stroke-width:0.8;"/>
     </g>
     <g id="line2d_74">
      <g>
       <use style="stroke:#000000;stroke-width:0.8;" x="427.345433" xlink:href="#mdb3c8f3e76" y="277.475665"/>
      </g>
     </g>
     <g id="text_37">
      <!-- 2005 -->
      <g transform="translate(420.298672 307.844439)rotate(-45)scale(0.1 -0.1)">
       <use xlink:href="#DejaVuSans-50"/>
       <use x="63.623047" xlink:href="#DejaVuSans-48"/>
       <use x="127.246094" xlink:href="#DejaVuSans-48"/>
       <use x="190.869141" xlink:href="#DejaVuSans-53"/>
      </g>
     </g>
    </g>
    <g id="xtick_38">
     <g id="line2d_75">
      <path clip-path="url(#pe4a01f8376)" d="M 437.577862 277.475665 
L 437.577862 45.996875 
" style="fill:none;stroke:#b0b0b0;stroke-linecap:square;stroke-width:0.8;"/>
     </g>
     <g id="line2d_76">
      <g>
       <use style="stroke:#000000;stroke-width:0.8;" x="437.577862" xlink:href="#mdb3c8f3e76" y="277.475665"/>
      </g>
     </g>
     <g id="text_38">
      <!-- 2010 -->
      <g transform="translate(430.531101 307.844439)rotate(-45)scale(0.1 -0.1)">
       <use xlink:href="#DejaVuSans-50"/>
       <use x="63.623047" xlink:href="#DejaVuSans-48"/>
       <use x="127.246094" xlink:href="#DejaVuSans-49"/>
       <use x="190.869141" xlink:href="#DejaVuSans-48"/>
      </g>
     </g>
    </g>
    <g id="text_39">
     <!-- Acquisition Year -->
     <defs>
      <path d="M 34.1875 63.1875 
L 20.796875 26.90625 
L 47.609375 26.90625 
z
M 28.609375 72.90625 
L 39.796875 72.90625 
L 67.578125 0 
L 57.328125 0 
L 50.6875 18.703125 
L 17.828125 18.703125 
L 11.1875 0 
L 0.78125 0 
z
" id="DejaVuSans-65"/>
      <path d="M 48.78125 52.59375 
L 48.78125 44.1875 
Q 44.96875 46.296875 41.140625 47.34375 
Q 37.3125 48.390625 33.40625 48.390625 
Q 24.65625 48.390625 19.8125 42.84375 
Q 14.984375 37.3125 14.984375 27.296875 
Q 14.984375 17.28125 19.8125 11.734375 
Q 24.65625 6.203125 33.40625 6.203125 
Q 37.3125 6.203125 41.140625 7.25 
Q 44.96875 8.296875 48.78125 10.40625 
L 48.78125 2.09375 
Q 45.015625 0.34375 40.984375 -0.53125 
Q 36.96875 -1.421875 32.421875 -1.421875 
Q 20.0625 -1.421875 12.78125 6.34375 
Q 5.515625 14.109375 5.515625 27.296875 
Q 5.515625 40.671875 12.859375 48.328125 
Q 20.21875 56 33.015625 56 
Q 37.15625 56 41.109375 55.140625 
Q 45.0625 54.296875 48.78125 52.59375 
z
" id="DejaVuSans-99"/>
      <path d="M 14.796875 27.296875 
Q 14.796875 17.390625 18.875 11.75 
Q 22.953125 6.109375 30.078125 6.109375 
Q 37.203125 6.109375 41.296875 11.75 
Q 45.40625 17.390625 45.40625 27.296875 
Q 45.40625 37.203125 41.296875 42.84375 
Q 37.203125 48.484375 30.078125 48.484375 
Q 22.953125 48.484375 18.875 42.84375 
Q 14.796875 37.203125 14.796875 27.296875 
z
M 45.40625 8.203125 
Q 42.578125 3.328125 38.25 0.953125 
Q 33.9375 -1.421875 27.875 -1.421875 
Q 17.96875 -1.421875 11.734375 6.484375 
Q 5.515625 14.40625 5.515625 27.296875 
Q 5.515625 40.1875 11.734375 48.09375 
Q 17.96875 56 27.875 56 
Q 33.9375 56 38.25 53.625 
Q 42.578125 51.265625 45.40625 46.390625 
L 45.40625 54.6875 
L 54.390625 54.6875 
L 54.390625 -20.796875 
L 45.40625 -20.796875 
z
" id="DejaVuSans-113"/>
      <path d="M 8.5 21.578125 
L 8.5 54.6875 
L 17.484375 54.6875 
L 17.484375 21.921875 
Q 17.484375 14.15625 20.5 10.265625 
Q 23.53125 6.390625 29.59375 6.390625 
Q 36.859375 6.390625 41.078125 11.03125 
Q 45.3125 15.671875 45.3125 23.6875 
L 45.3125 54.6875 
L 54.296875 54.6875 
L 54.296875 0 
L 45.3125 0 
L 45.3125 8.40625 
Q 42.046875 3.421875 37.71875 1 
Q 33.40625 -1.421875 27.6875 -1.421875 
Q 18.265625 -1.421875 13.375 4.4375 
Q 8.5 10.296875 8.5 21.578125 
z
M 31.109375 56 
z
" id="DejaVuSans-117"/>
      <path d="M 9.421875 54.6875 
L 18.40625 54.6875 
L 18.40625 0 
L 9.421875 0 
z
M 9.421875 75.984375 
L 18.40625 75.984375 
L 18.40625 64.59375 
L 9.421875 64.59375 
z
" id="DejaVuSans-105"/>
      <path d="M 44.28125 53.078125 
L 44.28125 44.578125 
Q 40.484375 46.53125 36.375 47.5 
Q 32.28125 48.484375 27.875 48.484375 
Q 21.1875 48.484375 17.84375 46.4375 
Q 14.5 44.390625 14.5 40.28125 
Q 14.5 37.15625 16.890625 35.375 
Q 19.28125 33.59375 26.515625 31.984375 
L 29.59375 31.296875 
Q 39.15625 29.25 43.1875 25.515625 
Q 47.21875 21.78125 47.21875 15.09375 
Q 47.21875 7.46875 41.1875 3.015625 
Q 35.15625 -1.421875 24.609375 -1.421875 
Q 20.21875 -1.421875 15.453125 -0.5625 
Q 10.6875 0.296875 5.421875 2 
L 5.421875 11.28125 
Q 10.40625 8.6875 15.234375 7.390625 
Q 20.0625 6.109375 24.8125 6.109375 
Q 31.15625 6.109375 34.5625 8.28125 
Q 37.984375 10.453125 37.984375 14.40625 
Q 37.984375 18.0625 35.515625 20.015625 
Q 33.0625 21.96875 24.703125 23.78125 
L 21.578125 24.515625 
Q 13.234375 26.265625 9.515625 29.90625 
Q 5.8125 33.546875 5.8125 39.890625 
Q 5.8125 47.609375 11.28125 51.796875 
Q 16.75 56 26.8125 56 
Q 31.78125 56 36.171875 55.265625 
Q 40.578125 54.546875 44.28125 53.078125 
z
" id="DejaVuSans-115"/>
      <path d="M 18.3125 70.21875 
L 18.3125 54.6875 
L 36.8125 54.6875 
L 36.8125 47.703125 
L 18.3125 47.703125 
L 18.3125 18.015625 
Q 18.3125 11.328125 20.140625 9.421875 
Q 21.96875 7.515625 27.59375 7.515625 
L 36.8125 7.515625 
L 36.8125 0 
L 27.59375 0 
Q 17.1875 0 13.234375 3.875 
Q 9.28125 7.765625 9.28125 18.015625 
L 9.28125 47.703125 
L 2.6875 47.703125 
L 2.6875 54.6875 
L 9.28125 54.6875 
L 9.28125 70.21875 
z
" id="DejaVuSans-116"/>
      <path d="M 30.609375 48.390625 
Q 23.390625 48.390625 19.1875 42.75 
Q 14.984375 37.109375 14.984375 27.296875 
Q 14.984375 17.484375 19.15625 11.84375 
Q 23.34375 6.203125 30.609375 6.203125 
Q 37.796875 6.203125 41.984375 11.859375 
Q 46.1875 17.53125 46.1875 27.296875 
Q 46.1875 37.015625 41.984375 42.703125 
Q 37.796875 48.390625 30.609375 48.390625 
z
M 30.609375 56 
Q 42.328125 56 49.015625 48.375 
Q 55.71875 40.765625 55.71875 27.296875 
Q 55.71875 13.875 49.015625 6.21875 
Q 42.328125 -1.421875 30.609375 -1.421875 
Q 18.84375 -1.421875 12.171875 6.21875 
Q 5.515625 13.875 5.515625 27.296875 
Q 5.515625 40.765625 12.171875 48.375 
Q 18.84375 56 30.609375 56 
z
" id="DejaVuSans-111"/>
      <path d="M 54.890625 33.015625 
L 54.890625 0 
L 45.90625 0 
L 45.90625 32.71875 
Q 45.90625 40.484375 42.875 44.328125 
Q 39.84375 48.1875 33.796875 48.1875 
Q 26.515625 48.1875 22.3125 43.546875 
Q 18.109375 38.921875 18.109375 30.90625 
L 18.109375 0 
L 9.078125 0 
L 9.078125 54.6875 
L 18.109375 54.6875 
L 18.109375 46.1875 
Q 21.34375 51.125 25.703125 53.5625 
Q 30.078125 56 35.796875 56 
Q 45.21875 56 50.046875 50.171875 
Q 54.890625 44.34375 54.890625 33.015625 
z
" id="DejaVuSans-110"/>
      <path id="DejaVuSans-32"/>
      <path d="M -0.203125 72.90625 
L 10.40625 72.90625 
L 30.609375 42.921875 
L 50.6875 72.90625 
L 61.28125 72.90625 
L 35.5 34.71875 
L 35.5 0 
L 25.59375 0 
L 25.59375 34.71875 
z
" id="DejaVuSans-89"/>
      <path d="M 56.203125 29.59375 
L 56.203125 25.203125 
L 14.890625 25.203125 
Q 15.484375 15.921875 20.484375 11.0625 
Q 25.484375 6.203125 34.421875 6.203125 
Q 39.59375 6.203125 44.453125 7.46875 
Q 49.3125 8.734375 54.109375 11.28125 
L 54.109375 2.78125 
Q 49.265625 0.734375 44.1875 -0.34375 
Q 39.109375 -1.421875 33.890625 -1.421875 
Q 20.796875 -1.421875 13.15625 6.1875 
Q 5.515625 13.8125 5.515625 26.8125 
Q 5.515625 40.234375 12.765625 48.109375 
Q 20.015625 56 32.328125 56 
Q 43.359375 56 49.78125 48.890625 
Q 56.203125 41.796875 56.203125 29.59375 
z
M 47.21875 32.234375 
Q 47.125 39.59375 43.09375 43.984375 
Q 39.0625 48.390625 32.421875 48.390625 
Q 24.90625 48.390625 20.390625 44.140625 
Q 15.875 39.890625 15.1875 32.171875 
z
" id="DejaVuSans-101"/>
      <path d="M 34.28125 27.484375 
Q 23.390625 27.484375 19.1875 25 
Q 14.984375 22.515625 14.984375 16.5 
Q 14.984375 11.71875 18.140625 8.90625 
Q 21.296875 6.109375 26.703125 6.109375 
Q 34.1875 6.109375 38.703125 11.40625 
Q 43.21875 16.703125 43.21875 25.484375 
L 43.21875 27.484375 
z
M 52.203125 31.203125 
L 52.203125 0 
L 43.21875 0 
L 43.21875 8.296875 
Q 40.140625 3.328125 35.546875 0.953125 
Q 30.953125 -1.421875 24.3125 -1.421875 
Q 15.921875 -1.421875 10.953125 3.296875 
Q 6 8.015625 6 15.921875 
Q 6 25.140625 12.171875 29.828125 
Q 18.359375 34.515625 30.609375 34.515625 
L 43.21875 34.515625 
L 43.21875 35.40625 
Q 43.21875 41.609375 39.140625 45 
Q 35.0625 48.390625 27.6875 48.390625 
Q 23 48.390625 18.546875 47.265625 
Q 14.109375 46.140625 10.015625 43.890625 
L 10.015625 52.203125 
Q 14.9375 54.109375 19.578125 55.046875 
Q 24.21875 56 28.609375 56 
Q 40.484375 56 46.34375 49.84375 
Q 52.203125 43.703125 52.203125 31.203125 
z
" id="DejaVuSans-97"/>
      <path d="M 41.109375 46.296875 
Q 39.59375 47.171875 37.8125 47.578125 
Q 36.03125 48 33.890625 48 
Q 26.265625 48 22.1875 43.046875 
Q 18.109375 38.09375 18.109375 28.8125 
L 18.109375 0 
L 9.078125 0 
L 9.078125 54.6875 
L 18.109375 54.6875 
L 18.109375 46.1875 
Q 20.953125 51.171875 25.484375 53.578125 
Q 30.03125 56 36.53125 56 
Q 37.453125 56 38.578125 55.875 
Q 39.703125 55.765625 41.0625 55.515625 
z
" id="DejaVuSans-114"/>
     </defs>
     <g style="fill:#8b0000;" transform="translate(184.81991 331.4725)scale(0.16 -0.16)">
      <use xlink:href="#DejaVuSans-65"/>
      <use x="68.392578" xlink:href="#DejaVuSans-99"/>
      <use x="123.373047" xlink:href="#DejaVuSans-113"/>
      <use x="186.849609" xlink:href="#DejaVuSans-117"/>
      <use x="250.228516" xlink:href="#DejaVuSans-105"/>
      <use x="278.011719" xlink:href="#DejaVuSans-115"/>
      <use x="330.111328" xlink:href="#DejaVuSans-105"/>
      <use x="357.894531" xlink:href="#DejaVuSans-116"/>
      <use x="397.103516" xlink:href="#DejaVuSans-105"/>
      <use x="424.886719" xlink:href="#DejaVuSans-111"/>
      <use x="486.068359" xlink:href="#DejaVuSans-110"/>
      <use x="549.447266" xlink:href="#DejaVuSans-32"/>
      <use x="581.234375" xlink:href="#DejaVuSans-89"/>
      <use x="642.115234" xlink:href="#DejaVuSans-101"/>
      <use x="703.638672" xlink:href="#DejaVuSans-97"/>
      <use x="764.917969" xlink:href="#DejaVuSans-114"/>
     </g>
    </g>
   </g>
   <g id="matplotlib.axis_2">
    <g id="ytick_1">
     <g id="line2d_77">
      <path clip-path="url(#pe4a01f8376)" d="M 54.885 266.953901 
L 443.71732 266.953901 
" style="fill:none;stroke:#b0b0b0;stroke-linecap:square;stroke-width:0.8;"/>
     </g>
     <g id="line2d_78">
      <defs>
       <path d="M 0 0 
L -3.5 0 
" id="m57540186d2" style="stroke:#000000;stroke-width:0.8;"/>
      </defs>
      <g>
       <use style="stroke:#000000;stroke-width:0.8;" x="54.885" xlink:href="#m57540186d2" y="266.953901"/>
      </g>
     </g>
     <g id="text_40">
      <!-- $\mathdefault{10^{0}}$ -->
      <g transform="translate(30.285 270.75312)scale(0.1 -0.1)">
       <use transform="translate(0 0.765625)" xlink:href="#DejaVuSans-49"/>
       <use transform="translate(63.623047 0.765625)" xlink:href="#DejaVuSans-48"/>
       <use transform="translate(128.203125 39.046875)scale(0.7)" xlink:href="#DejaVuSans-48"/>
      </g>
     </g>
    </g>
    <g id="ytick_2">
     <g id="line2d_79">
      <path clip-path="url(#pe4a01f8376)" d="M 54.885 220.992877 
L 443.71732 220.992877 
" style="fill:none;stroke:#b0b0b0;stroke-linecap:square;stroke-width:0.8;"/>
     </g>
     <g id="line2d_80">
      <g>
       <use style="stroke:#000000;stroke-width:0.8;" x="54.885" xlink:href="#m57540186d2" y="220.992877"/>
      </g>
     </g>
     <g id="text_41">
      <!-- $\mathdefault{10^{1}}$ -->
      <g transform="translate(30.285 224.792095)scale(0.1 -0.1)">
       <use transform="translate(0 0.684375)" xlink:href="#DejaVuSans-49"/>
       <use transform="translate(63.623047 0.684375)" xlink:href="#DejaVuSans-48"/>
       <use transform="translate(128.203125 38.965625)scale(0.7)" xlink:href="#DejaVuSans-49"/>
      </g>
     </g>
    </g>
    <g id="ytick_3">
     <g id="line2d_81">
      <path clip-path="url(#pe4a01f8376)" d="M 54.885 175.031852 
L 443.71732 175.031852 
" style="fill:none;stroke:#b0b0b0;stroke-linecap:square;stroke-width:0.8;"/>
     </g>
     <g id="line2d_82">
      <g>
       <use style="stroke:#000000;stroke-width:0.8;" x="54.885" xlink:href="#m57540186d2" y="175.031852"/>
      </g>
     </g>
     <g id="text_42">
      <!-- $\mathdefault{10^{2}}$ -->
      <g transform="translate(30.285 178.831071)scale(0.1 -0.1)">
       <use transform="translate(0 0.765625)" xlink:href="#DejaVuSans-49"/>
       <use transform="translate(63.623047 0.765625)" xlink:href="#DejaVuSans-48"/>
       <use transform="translate(128.203125 39.046875)scale(0.7)" xlink:href="#DejaVuSans-50"/>
      </g>
     </g>
    </g>
    <g id="ytick_4">
     <g id="line2d_83">
      <path clip-path="url(#pe4a01f8376)" d="M 54.885 129.070827 
L 443.71732 129.070827 
" style="fill:none;stroke:#b0b0b0;stroke-linecap:square;stroke-width:0.8;"/>
     </g>
     <g id="line2d_84">
      <g>
       <use style="stroke:#000000;stroke-width:0.8;" x="54.885" xlink:href="#m57540186d2" y="129.070827"/>
      </g>
     </g>
     <g id="text_43">
      <!-- $\mathdefault{10^{3}}$ -->
      <g transform="translate(30.285 132.870046)scale(0.1 -0.1)">
       <use transform="translate(0 0.765625)" xlink:href="#DejaVuSans-49"/>
       <use transform="translate(63.623047 0.765625)" xlink:href="#DejaVuSans-48"/>
       <use transform="translate(128.203125 39.046875)scale(0.7)" xlink:href="#DejaVuSans-51"/>
      </g>
     </g>
    </g>
    <g id="ytick_5">
     <g id="line2d_85">
      <path clip-path="url(#pe4a01f8376)" d="M 54.885 83.109802 
L 443.71732 83.109802 
" style="fill:none;stroke:#b0b0b0;stroke-linecap:square;stroke-width:0.8;"/>
     </g>
     <g id="line2d_86">
      <g>
       <use style="stroke:#000000;stroke-width:0.8;" x="54.885" xlink:href="#m57540186d2" y="83.109802"/>
      </g>
     </g>
     <g id="text_44">
      <!-- $\mathdefault{10^{4}}$ -->
      <g transform="translate(30.285 86.909021)scale(0.1 -0.1)">
       <use transform="translate(0 0.684375)" xlink:href="#DejaVuSans-49"/>
       <use transform="translate(63.623047 0.684375)" xlink:href="#DejaVuSans-48"/>
       <use transform="translate(128.203125 38.965625)scale(0.7)" xlink:href="#DejaVuSans-52"/>
      </g>
     </g>
    </g>
    <g id="ytick_6">
     <g id="line2d_87">
      <defs>
       <path d="M 0 0 
L -2 0 
" id="m8137c0d4ee" style="stroke:#000000;stroke-width:0.6;"/>
      </defs>
      <g>
       <use style="stroke:#000000;stroke-width:0.6;" x="54.885" xlink:href="#m8137c0d4ee" y="277.150297"/>
      </g>
     </g>
    </g>
    <g id="ytick_7">
     <g id="line2d_88">
      <g>
       <use style="stroke:#000000;stroke-width:0.6;" x="54.885" xlink:href="#m8137c0d4ee" y="274.073354"/>
      </g>
     </g>
    </g>
    <g id="ytick_8">
     <g id="line2d_89">
      <g>
       <use style="stroke:#000000;stroke-width:0.6;" x="54.885" xlink:href="#m8137c0d4ee" y="271.407985"/>
      </g>
     </g>
    </g>
    <g id="ytick_9">
     <g id="line2d_90">
      <g>
       <use style="stroke:#000000;stroke-width:0.6;" x="54.885" xlink:href="#m8137c0d4ee" y="269.056963"/>
      </g>
     </g>
    </g>
    <g id="ytick_10">
     <g id="line2d_91">
      <g>
       <use style="stroke:#000000;stroke-width:0.6;" x="54.885" xlink:href="#m8137c0d4ee" y="253.118254"/>
      </g>
     </g>
    </g>
    <g id="ytick_11">
     <g id="line2d_92">
      <g>
       <use style="stroke:#000000;stroke-width:0.6;" x="54.885" xlink:href="#m8137c0d4ee" y="245.02492"/>
      </g>
     </g>
    </g>
    <g id="ytick_12">
     <g id="line2d_93">
      <g>
       <use style="stroke:#000000;stroke-width:0.6;" x="54.885" xlink:href="#m8137c0d4ee" y="239.282607"/>
      </g>
     </g>
    </g>
    <g id="ytick_13">
     <g id="line2d_94">
      <g>
       <use style="stroke:#000000;stroke-width:0.6;" x="54.885" xlink:href="#m8137c0d4ee" y="234.828524"/>
      </g>
     </g>
    </g>
    <g id="ytick_14">
     <g id="line2d_95">
      <g>
       <use style="stroke:#000000;stroke-width:0.6;" x="54.885" xlink:href="#m8137c0d4ee" y="231.189273"/>
      </g>
     </g>
    </g>
    <g id="ytick_15">
     <g id="line2d_96">
      <g>
       <use style="stroke:#000000;stroke-width:0.6;" x="54.885" xlink:href="#m8137c0d4ee" y="228.112329"/>
      </g>
     </g>
    </g>
    <g id="ytick_16">
     <g id="line2d_97">
      <g>
       <use style="stroke:#000000;stroke-width:0.6;" x="54.885" xlink:href="#m8137c0d4ee" y="225.44696"/>
      </g>
     </g>
    </g>
    <g id="ytick_17">
     <g id="line2d_98">
      <g>
       <use style="stroke:#000000;stroke-width:0.6;" x="54.885" xlink:href="#m8137c0d4ee" y="223.095938"/>
      </g>
     </g>
    </g>
    <g id="ytick_18">
     <g id="line2d_99">
      <g>
       <use style="stroke:#000000;stroke-width:0.6;" x="54.885" xlink:href="#m8137c0d4ee" y="207.15723"/>
      </g>
     </g>
    </g>
    <g id="ytick_19">
     <g id="line2d_100">
      <g>
       <use style="stroke:#000000;stroke-width:0.6;" x="54.885" xlink:href="#m8137c0d4ee" y="199.063895"/>
      </g>
     </g>
    </g>
    <g id="ytick_20">
     <g id="line2d_101">
      <g>
       <use style="stroke:#000000;stroke-width:0.6;" x="54.885" xlink:href="#m8137c0d4ee" y="193.321582"/>
      </g>
     </g>
    </g>
    <g id="ytick_21">
     <g id="line2d_102">
      <g>
       <use style="stroke:#000000;stroke-width:0.6;" x="54.885" xlink:href="#m8137c0d4ee" y="188.867499"/>
      </g>
     </g>
    </g>
    <g id="ytick_22">
     <g id="line2d_103">
      <g>
       <use style="stroke:#000000;stroke-width:0.6;" x="54.885" xlink:href="#m8137c0d4ee" y="185.228248"/>
      </g>
     </g>
    </g>
    <g id="ytick_23">
     <g id="line2d_104">
      <g>
       <use style="stroke:#000000;stroke-width:0.6;" x="54.885" xlink:href="#m8137c0d4ee" y="182.151305"/>
      </g>
     </g>
    </g>
    <g id="ytick_24">
     <g id="line2d_105">
      <g>
       <use style="stroke:#000000;stroke-width:0.6;" x="54.885" xlink:href="#m8137c0d4ee" y="179.485935"/>
      </g>
     </g>
    </g>
    <g id="ytick_25">
     <g id="line2d_106">
      <g>
       <use style="stroke:#000000;stroke-width:0.6;" x="54.885" xlink:href="#m8137c0d4ee" y="177.134913"/>
      </g>
     </g>
    </g>
    <g id="ytick_26">
     <g id="line2d_107">
      <g>
       <use style="stroke:#000000;stroke-width:0.6;" x="54.885" xlink:href="#m8137c0d4ee" y="161.196205"/>
      </g>
     </g>
    </g>
    <g id="ytick_27">
     <g id="line2d_108">
      <g>
       <use style="stroke:#000000;stroke-width:0.6;" x="54.885" xlink:href="#m8137c0d4ee" y="153.10287"/>
      </g>
     </g>
    </g>
    <g id="ytick_28">
     <g id="line2d_109">
      <g>
       <use style="stroke:#000000;stroke-width:0.6;" x="54.885" xlink:href="#m8137c0d4ee" y="147.360558"/>
      </g>
     </g>
    </g>
    <g id="ytick_29">
     <g id="line2d_110">
      <g>
       <use style="stroke:#000000;stroke-width:0.6;" x="54.885" xlink:href="#m8137c0d4ee" y="142.906474"/>
      </g>
     </g>
    </g>
    <g id="ytick_30">
     <g id="line2d_111">
      <g>
       <use style="stroke:#000000;stroke-width:0.6;" x="54.885" xlink:href="#m8137c0d4ee" y="139.267223"/>
      </g>
     </g>
    </g>
    <g id="ytick_31">
     <g id="line2d_112">
      <g>
       <use style="stroke:#000000;stroke-width:0.6;" x="54.885" xlink:href="#m8137c0d4ee" y="136.19028"/>
      </g>
     </g>
    </g>
    <g id="ytick_32">
     <g id="line2d_113">
      <g>
       <use style="stroke:#000000;stroke-width:0.6;" x="54.885" xlink:href="#m8137c0d4ee" y="133.524911"/>
      </g>
     </g>
    </g>
    <g id="ytick_33">
     <g id="line2d_114">
      <g>
       <use style="stroke:#000000;stroke-width:0.6;" x="54.885" xlink:href="#m8137c0d4ee" y="131.173888"/>
      </g>
     </g>
    </g>
    <g id="ytick_34">
     <g id="line2d_115">
      <g>
       <use style="stroke:#000000;stroke-width:0.6;" x="54.885" xlink:href="#m8137c0d4ee" y="115.23518"/>
      </g>
     </g>
    </g>
    <g id="ytick_35">
     <g id="line2d_116">
      <g>
       <use style="stroke:#000000;stroke-width:0.6;" x="54.885" xlink:href="#m8137c0d4ee" y="107.141845"/>
      </g>
     </g>
    </g>
    <g id="ytick_36">
     <g id="line2d_117">
      <g>
       <use style="stroke:#000000;stroke-width:0.6;" x="54.885" xlink:href="#m8137c0d4ee" y="101.399533"/>
      </g>
     </g>
    </g>
    <g id="ytick_37">
     <g id="line2d_118">
      <g>
       <use style="stroke:#000000;stroke-width:0.6;" x="54.885" xlink:href="#m8137c0d4ee" y="96.945449"/>
      </g>
     </g>
    </g>
    <g id="ytick_38">
     <g id="line2d_119">
      <g>
       <use style="stroke:#000000;stroke-width:0.6;" x="54.885" xlink:href="#m8137c0d4ee" y="93.306198"/>
      </g>
     </g>
    </g>
    <g id="ytick_39">
     <g id="line2d_120">
      <g>
       <use style="stroke:#000000;stroke-width:0.6;" x="54.885" xlink:href="#m8137c0d4ee" y="90.229255"/>
      </g>
     </g>
    </g>
    <g id="ytick_40">
     <g id="line2d_121">
      <g>
       <use style="stroke:#000000;stroke-width:0.6;" x="54.885" xlink:href="#m8137c0d4ee" y="87.563886"/>
      </g>
     </g>
    </g>
    <g id="ytick_41">
     <g id="line2d_122">
      <g>
       <use style="stroke:#000000;stroke-width:0.6;" x="54.885" xlink:href="#m8137c0d4ee" y="85.212863"/>
      </g>
     </g>
    </g>
    <g id="ytick_42">
     <g id="line2d_123">
      <g>
       <use style="stroke:#000000;stroke-width:0.6;" x="54.885" xlink:href="#m8137c0d4ee" y="69.274155"/>
      </g>
     </g>
    </g>
    <g id="ytick_43">
     <g id="line2d_124">
      <g>
       <use style="stroke:#000000;stroke-width:0.6;" x="54.885" xlink:href="#m8137c0d4ee" y="61.18082"/>
      </g>
     </g>
    </g>
    <g id="ytick_44">
     <g id="line2d_125">
      <g>
       <use style="stroke:#000000;stroke-width:0.6;" x="54.885" xlink:href="#m8137c0d4ee" y="55.438508"/>
      </g>
     </g>
    </g>
    <g id="ytick_45">
     <g id="line2d_126">
      <g>
       <use style="stroke:#000000;stroke-width:0.6;" x="54.885" xlink:href="#m8137c0d4ee" y="50.984425"/>
      </g>
     </g>
    </g>
    <g id="ytick_46">
     <g id="line2d_127">
      <g>
       <use style="stroke:#000000;stroke-width:0.6;" x="54.885" xlink:href="#m8137c0d4ee" y="47.345173"/>
      </g>
     </g>
    </g>
    <g id="text_45">
     <!-- Artworks Acquired -->
     <defs>
      <path d="M 4.203125 54.6875 
L 13.1875 54.6875 
L 24.421875 12.015625 
L 35.59375 54.6875 
L 46.1875 54.6875 
L 57.421875 12.015625 
L 68.609375 54.6875 
L 77.59375 54.6875 
L 63.28125 0 
L 52.6875 0 
L 40.921875 44.828125 
L 29.109375 0 
L 18.5 0 
z
" id="DejaVuSans-119"/>
      <path d="M 9.078125 75.984375 
L 18.109375 75.984375 
L 18.109375 31.109375 
L 44.921875 54.6875 
L 56.390625 54.6875 
L 27.390625 29.109375 
L 57.625 0 
L 45.90625 0 
L 18.109375 26.703125 
L 18.109375 0 
L 9.078125 0 
z
" id="DejaVuSans-107"/>
      <path d="M 45.40625 46.390625 
L 45.40625 75.984375 
L 54.390625 75.984375 
L 54.390625 0 
L 45.40625 0 
L 45.40625 8.203125 
Q 42.578125 3.328125 38.25 0.953125 
Q 33.9375 -1.421875 27.875 -1.421875 
Q 17.96875 -1.421875 11.734375 6.484375 
Q 5.515625 14.40625 5.515625 27.296875 
Q 5.515625 40.1875 11.734375 48.09375 
Q 17.96875 56 27.875 56 
Q 33.9375 56 38.25 53.625 
Q 42.578125 51.265625 45.40625 46.390625 
z
M 14.796875 27.296875 
Q 14.796875 17.390625 18.875 11.75 
Q 22.953125 6.109375 30.078125 6.109375 
Q 37.203125 6.109375 41.296875 11.75 
Q 45.40625 17.390625 45.40625 27.296875 
Q 45.40625 37.203125 41.296875 42.84375 
Q 37.203125 48.484375 30.078125 48.484375 
Q 22.953125 48.484375 18.875 42.84375 
Q 14.796875 37.203125 14.796875 27.296875 
z
" id="DejaVuSans-100"/>
     </defs>
     <g style="fill:#8b0000;" transform="translate(22.9575 235.23127)rotate(-90)scale(0.16 -0.16)">
      <use xlink:href="#DejaVuSans-65"/>
      <use x="68.408203" xlink:href="#DejaVuSans-114"/>
      <use x="109.521484" xlink:href="#DejaVuSans-116"/>
      <use x="148.730469" xlink:href="#DejaVuSans-119"/>
      <use x="230.517578" xlink:href="#DejaVuSans-111"/>
      <use x="291.699219" xlink:href="#DejaVuSans-114"/>
      <use x="332.8125" xlink:href="#DejaVuSans-107"/>
      <use x="390.722656" xlink:href="#DejaVuSans-115"/>
      <use x="442.822266" xlink:href="#DejaVuSans-32"/>
      <use x="474.609375" xlink:href="#DejaVuSans-65"/>
      <use x="543.001953" xlink:href="#DejaVuSans-99"/>
      <use x="597.982422" xlink:href="#DejaVuSans-113"/>
      <use x="661.458984" xlink:href="#DejaVuSans-117"/>
      <use x="724.837891" xlink:href="#DejaVuSans-105"/>
      <use x="752.621094" xlink:href="#DejaVuSans-114"/>
      <use x="793.703125" xlink:href="#DejaVuSans-101"/>
      <use x="855.226562" xlink:href="#DejaVuSans-100"/>
     </g>
    </g>
   </g>
   <g id="line2d_128">
    <path clip-path="url(#pe4a01f8376)" d="M 54.885 266.953901 
L 56.931486 253.118254 
L 61.024458 239.282607 
L 63.070944 266.953901 
L 65.117429 245.02492 
L 69.210401 253.118254 
L 77.396345 266.953901 
L 79.442831 266.953901 
L 81.489317 245.02492 
L 83.535803 239.282607 
L 89.67526 253.118254 
L 91.721746 253.118254 
L 93.768232 266.953901 
L 97.861204 266.953901 
L 104.000661 167.206449 
L 108.093633 266.953901 
L 110.140119 266.953901 
L 116.279577 245.02492 
L 118.326063 210.401208 
L 120.372549 266.953901 
L 122.419034 56.518638 
L 124.46552 253.118254 
L 126.512006 239.282607 
L 128.558492 210.401208 
L 130.604978 253.118254 
L 132.651464 239.282607 
L 136.744436 266.953901 
L 138.790922 253.118254 
L 142.883893 253.118254 
L 144.930379 212.899542 
L 146.976865 220.992877 
L 149.023351 234.828524 
L 151.069837 266.953901 
L 153.116323 223.095938 
L 157.209295 266.953901 
L 159.255781 245.02492 
L 163.348752 245.02492 
L 165.395238 219.090426 
L 167.441724 212.899542 
L 169.48821 189.270757 
L 171.534696 231.189273 
L 173.581182 245.02492 
L 175.627668 231.189273 
L 177.674154 245.02492 
L 179.720639 223.095938 
L 181.767125 205.254779 
L 183.813611 223.095938 
L 185.860097 217.353625 
L 187.906583 127.907744 
L 189.953069 223.095938 
L 191.999555 225.44696 
L 194.046041 206.183348 
L 196.092527 214.276682 
L 198.139013 223.095938 
L 200.185498 179.485935 
L 202.231984 219.090426 
L 204.27847 194.877743 
L 206.324956 194.877743 
L 208.371442 186.965049 
L 210.417928 208.181075 
L 212.464414 181.042096 
L 214.5109 223.095938 
L 216.557386 217.353625 
L 218.603871 220.992877 
L 220.650357 207.15723 
L 222.696843 183.940019 
L 224.743329 210.401208 
L 226.789815 195.986952 
L 228.836301 170.899721 
L 230.882787 188.867499 
L 232.929273 178.04237 
L 234.975759 200.441035 
L 237.022244 179.237974 
L 239.06873 202.703146 
L 241.115216 202.703146 
L 243.161702 203.517978 
L 245.208188 194.877743 
L 249.30116 171.728081 
L 251.347646 170.260926 
L 253.394132 192.828703 
L 255.440618 203.517978 
L 257.487103 172.242117 
L 259.533589 193.826942 
L 261.580075 158.756665 
L 263.626561 158.668539 
L 265.673047 181.868171 
L 267.719533 158.845182 
L 269.766019 194.345428 
L 271.812505 189.270757 
L 273.858991 183.630546 
L 275.905476 191.878017 
L 277.951962 189.682331 
L 279.998448 188.867499 
L 282.044934 194.877743 
L 284.09142 193.826942 
L 286.137906 198.40939 
L 288.184392 193.321582 
L 290.230878 184.573743 
L 292.277364 179.737016 
L 294.323849 160.509531 
L 298.416821 187.704415 
L 300.463307 197.161445 
L 302.509793 193.321582 
L 304.556279 192.347701 
L 306.602765 170.104372 
L 308.649251 191.419132 
L 310.695737 193.321582 
L 312.742223 190.97056 
L 314.788708 193.321582 
L 316.835194 189.682331 
L 318.88168 194.345428 
L 320.928166 185.904944 
L 322.974652 192.347701 
L 325.021138 179.237974 
L 327.067624 194.877743 
L 329.11411 188.472226 
L 331.160596 183.630546 
L 333.207081 176.6962 
L 335.253567 179.237974 
L 337.300053 180.248854 
L 339.346539 176.6962 
L 341.393025 181.588997 
L 343.439511 178.512053 
L 345.485997 176.480408 
L 347.532483 178.04237 
L 349.578969 169.641943 
L 351.625455 177.811609 
L 353.67194 181.868171 
L 355.718426 163.975962 
L 357.764912 164.323112 
L 359.811398 154.551426 
L 361.857884 168.602866 
L 363.90437 170.577768 
L 365.950856 106.838105 
L 367.997342 139.035697 
L 370.043828 152.57756 
L 372.090313 150.429186 
L 374.136799 126.005293 
L 376.183285 143.066801 
L 378.229771 148.384404 
L 380.276257 139.367276 
L 382.322743 141.705765 
L 384.369229 157.473957 
L 386.415715 149.079221 
L 388.462201 129.15083 
L 390.508686 159.476045 
L 392.555172 127.114013 
L 394.601658 149.742793 
L 396.648144 156.425279 
L 398.69463 159.845696 
L 400.741116 155.806296 
L 402.787602 163.410467 
L 404.834088 154.839671 
L 406.880574 159.939189 
L 408.92706 136.564462 
L 410.973545 102.923351 
L 413.020031 148.970739 
L 415.066517 153.779566 
L 417.113003 157.227018 
L 419.159489 152.448365 
L 421.205975 151.877116 
L 423.252461 148.331945 
L 425.298947 137.885647 
L 427.345433 151.019779 
L 429.391918 157.640297 
L 431.438404 151.019779 
L 433.48489 133.851935 
L 435.531376 122.87462 
L 437.577862 147.763816 
L 439.624348 151.814641 
L 441.670834 142.355258 
L 443.71732 144.657797 
L 443.71732 144.657797 
" style="fill:none;stroke:#1f77b4;stroke-linecap:square;stroke-width:1.5;"/>
   </g>
   <g id="patch_3">
    <path d="M 54.885 277.475665 
L 54.885 45.996875 
" style="fill:none;stroke:#000000;stroke-linecap:square;stroke-linejoin:miter;stroke-width:0.8;"/>
   </g>
   <g id="patch_4">
    <path d="M 443.71732 277.475665 
L 443.71732 45.996875 
" style="fill:none;stroke:#000000;stroke-linecap:square;stroke-linejoin:miter;stroke-width:0.8;"/>
   </g>
   <g id="patch_5">
    <path d="M 54.885 277.475665 
L 443.71732 277.475665 
" style="fill:none;stroke:#000000;stroke-linecap:square;stroke-linejoin:miter;stroke-width:0.8;"/>
   </g>
   <g id="patch_6">
    <path d="M 54.885 45.996875 
L 443.71732 45.996875 
" style="fill:none;stroke:#000000;stroke-linecap:square;stroke-linejoin:miter;stroke-width:0.8;"/>
   </g>
   <g id="text_46">
    <!-- Tate Gallery Acquisitions -->
    <defs>
     <path d="M -0.296875 72.90625 
L 61.375 72.90625 
L 61.375 64.59375 
L 35.5 64.59375 
L 35.5 0 
L 25.59375 0 
L 25.59375 64.59375 
L -0.296875 64.59375 
z
" id="DejaVuSans-84"/>
     <path d="M 59.515625 10.40625 
L 59.515625 29.984375 
L 43.40625 29.984375 
L 43.40625 38.09375 
L 69.28125 38.09375 
L 69.28125 6.78125 
Q 63.578125 2.734375 56.6875 0.65625 
Q 49.8125 -1.421875 42 -1.421875 
Q 24.90625 -1.421875 15.25 8.5625 
Q 5.609375 18.5625 5.609375 36.375 
Q 5.609375 54.25 15.25 64.234375 
Q 24.90625 74.21875 42 74.21875 
Q 49.125 74.21875 55.546875 72.453125 
Q 61.96875 70.703125 67.390625 67.28125 
L 67.390625 56.78125 
Q 61.921875 61.421875 55.765625 63.765625 
Q 49.609375 66.109375 42.828125 66.109375 
Q 29.4375 66.109375 22.71875 58.640625 
Q 16.015625 51.171875 16.015625 36.375 
Q 16.015625 21.625 22.71875 14.15625 
Q 29.4375 6.6875 42.828125 6.6875 
Q 48.046875 6.6875 52.140625 7.59375 
Q 56.25 8.5 59.515625 10.40625 
z
" id="DejaVuSans-71"/>
     <path d="M 9.421875 75.984375 
L 18.40625 75.984375 
L 18.40625 0 
L 9.421875 0 
z
" id="DejaVuSans-108"/>
     <path d="M 32.171875 -5.078125 
Q 28.375 -14.84375 24.75 -17.8125 
Q 21.140625 -20.796875 15.09375 -20.796875 
L 7.90625 -20.796875 
L 7.90625 -13.28125 
L 13.1875 -13.28125 
Q 16.890625 -13.28125 18.9375 -11.515625 
Q 21 -9.765625 23.484375 -3.21875 
L 25.09375 0.875 
L 2.984375 54.6875 
L 12.5 54.6875 
L 29.59375 11.921875 
L 46.6875 54.6875 
L 56.203125 54.6875 
z
" id="DejaVuSans-121"/>
    </defs>
    <g style="fill:#00008b;" transform="translate(124.891785 25.996875)scale(0.2 -0.2)">
     <use xlink:href="#DejaVuSans-84"/>
     <use x="60.833984" xlink:href="#DejaVuSans-97"/>
     <use x="122.113281" xlink:href="#DejaVuSans-116"/>
     <use x="161.322266" xlink:href="#DejaVuSans-101"/>
     <use x="222.845703" xlink:href="#DejaVuSans-32"/>
     <use x="254.632812" xlink:href="#DejaVuSans-71"/>
     <use x="332.123047" xlink:href="#DejaVuSans-97"/>
     <use x="393.402344" xlink:href="#DejaVuSans-108"/>
     <use x="421.185547" xlink:href="#DejaVuSans-108"/>
     <use x="448.96875" xlink:href="#DejaVuSans-101"/>
     <use x="510.492188" xlink:href="#DejaVuSans-114"/>
     <use x="551.605469" xlink:href="#DejaVuSans-121"/>
     <use x="610.785156" xlink:href="#DejaVuSans-32"/>
     <use x="642.572266" xlink:href="#DejaVuSans-65"/>
     <use x="710.964844" xlink:href="#DejaVuSans-99"/>
     <use x="765.945312" xlink:href="#DejaVuSans-113"/>
     <use x="829.421875" xlink:href="#DejaVuSans-117"/>
     <use x="892.800781" xlink:href="#DejaVuSans-105"/>
     <use x="920.583984" xlink:href="#DejaVuSans-115"/>
     <use x="972.683594" xlink:href="#DejaVuSans-105"/>
     <use x="1000.466797" xlink:href="#DejaVuSans-116"/>
     <use x="1039.675781" xlink:href="#DejaVuSans-105"/>
     <use x="1067.458984" xlink:href="#DejaVuSans-111"/>
     <use x="1128.640625" xlink:href="#DejaVuSans-110"/>
     <use x="1192.019531" xlink:href="#DejaVuSans-115"/>
    </g>
   </g>
  </g>
 </g>
 <defs>
  <clipPath id="pe4a01f8376">
   <rect height="231.47879" width="388.83232" x="54.885" y="45.996875"/>
  </clipPath>
 </defs>
</svg>
